<?xml version="1.0" encoding="utf-8"?>
<!-- Generator: Adobe Illustrator 24.1.2, SVG Export Plug-In . SVG Version: 6.00 Build 0)  -->
<svg version="1.1" id="レイヤー_1" xmlns="http://www.w3.org/2000/svg" xmlns:xlink="http://www.w3.org/1999/xlink" x="0px"
	 y="0px" width="153.3px" height="49.5px" viewBox="0 0 153.3 49.5" style="enable-background:new 0 0 153.3 49.5;"
	 xml:space="preserve">
<style type="text/css">
	.st0{fill-rule:evenodd;clip-rule:evenodd;fill:#FFFFFF;}
	.st1{clip-path:url(#SVGID_2_);}
	.st2{clip-path:url(#SVGID_4_);fill:#FFFFFF;}
</style>
<g>
	<g>
		<rect x="10.1" class="st0" width="10.1" height="10"/>
		<polygon class="st0" points="20.2,10 20.2,19.5 10.1,19.5 10.1,10 0,10 0,39.5 10.1,39.5 10.1,29.5 20.2,29.5 20.2,39.5 
			30.2,39.5 30.2,10 		"/>
		<rect x="10.1" y="39.5" class="st0" width="10.1" height="10"/>
	</g>
	<g>
		<defs>
			<path id="SVGID_1_" d="M138.9,20v-2.4h12.7V20c-0.9,2.1-2.2,4-3.8,5.8c2.1,1.9,4,3.6,5.5,5.2l-1.8,1.8c-1.9-1.9-3.8-3.7-5.5-5.2
				c-2.3,2.1-4.8,3.8-7.6,5.1l-1.2-2.2c2.7-1.3,5-2.9,6.9-4.6c1.9-1.8,3.5-3.8,4.6-5.9H138.9z M128,30c1.3-0.3,2.2-1,2.9-2
				c0.7-1,1.1-2.5,1.3-4.5l2.5,0.4c-0.5,6-3.5,9-9,9h-0.5V17.2h2.8V30z M120,17.2h2.7v4c0,2.7-0.2,4.8-0.5,6.2
				c-0.3,1.5-0.8,2.6-1.4,3.4c-0.6,0.8-1.6,1.5-2.9,2.1l-1.4-2.2c0.6-0.3,1.2-0.6,1.5-0.9c0.4-0.3,0.7-0.7,1-1.1
				c0.3-0.4,0.5-1,0.6-1.7c0.1-0.7,0.2-1.5,0.3-2.4c0.1-0.9,0.1-2.1,0.1-3.5V17.2z M96.2,27.9c0.3-0.3,0.9-1.2,1.9-2.5
				c1-1.3,1.5-2,1.5-2.1c1.3-1.9,2.2-3,2.6-3.4c0.4-0.4,1-0.6,1.8-0.6c0.5,0,1,0.1,1.3,0.2c0.3,0.2,0.7,0.4,1.1,0.8
				c0.4,0.4,1.1,1.1,2.1,2.2c2.8,3,5,5.3,6.6,6.9l-1.9,2c-2.3-2.3-4.5-4.6-6.6-7c-0.9-1-1.5-1.6-1.8-1.9c-0.3-0.3-0.5-0.4-0.7-0.4
				c-0.2,0-0.4,0.2-0.6,0.5c-0.3,0.3-0.7,0.9-1.4,1.9c-1.4,2-2.6,3.6-3.6,4.9L96.2,27.9z M90.1,20.8h-6.6c-0.8,2.1-2.1,4-3.9,5.7
				l-1.9-1.6c1.1-1.1,2.1-2.4,2.8-3.9c0.7-1.5,1.2-3,1.4-4.5l2.6,0.1c-0.1,0.6-0.1,1.1-0.3,1.8h8.7v0.5c0,4.6-1,8-3.1,10.2
				c-2.1,2.2-5.5,3.5-10.1,3.9l-0.4-2.4c3.7-0.4,6.4-1.3,8-2.7C88.9,26.4,89.9,24,90.1,20.8z M72,19.1l2.5,0.6
				c-0.7,3.9-2.3,6.9-4.8,9c-2.5,2.1-5.9,3.4-10.3,3.7l-0.4-2.6c3.8-0.4,6.8-1.4,8.8-3.1C70,25,71.3,22.5,72,19.1z M58.6,19.6
				l1.3-2.4c2,0.9,4,2,6.1,3.2l-1.3,2.3C63,21.8,60.9,20.7,58.6,19.6z M39.4,19.2l0.5-2.4c2.1,0.3,4.3,0.8,6.7,1.2l-0.5,2.4
				C43.7,20,41.5,19.5,39.4,19.2z M38.5,24l0.5-2.4c1.7,0.3,3.9,0.7,6.5,1.3L45,25.2C42.6,24.7,40.5,24.3,38.5,24z M39.3,30.3
				c4.2-0.4,7.2-1.3,9.1-2.9c1.9-1.6,3.2-4.2,3.8-7.9l2.5,0.4c-0.8,4.3-2.3,7.4-4.6,9.3c-2.3,2-5.8,3.2-10.5,3.6L39.3,30.3z"/>
		</defs>
		<use xlink:href="#SVGID_1_"  style="overflow:visible;fill-rule:evenodd;clip-rule:evenodd;fill:#FFFFFF;"/>
		<clipPath id="SVGID_2_">
			<use xlink:href="#SVGID_1_"  style="overflow:visible;"/>
		</clipPath>
		<g class="st1">
			<defs>
				<rect id="SVGID_3_" x="-52.2" y="-274" width="771.5" height="545.2"/>
			</defs>
			<use xlink:href="#SVGID_3_"  style="overflow:visible;fill:#FFFFFF;"/>
			<clipPath id="SVGID_4_">
				<use xlink:href="#SVGID_3_"  style="overflow:visible;"/>
			</clipPath>
			<rect x="33.9" y="11.9" class="st2" width="123.9" height="25.6"/>
		</g>
	</g>
</g>
</svg>
