<svg version="1.1" id="レイヤー_1" xmlns="http://www.w3.org/2000/svg" x="0" y="0" width="175.1" height="61.6" xml:space="preserve"><style>.st0{fill:#44b7a2}</style><path class="st0" d="M12.3 0h12.3v12.3H12.3zM12.3 49.2h12.3v12.3H12.3zM24.6 12.3v12.3H12.3V12.3H0v36.9h12.3V36.9h12.3v12.3h12.3V12.3zM52.3 21.4v7.9h9.6v-7.9H65v18.9h-3.1v-8.4h-9.6v8.4h-3.1V21.4h3.1zM79.5 22.6c1.2 1.1 1.7 2.4 1.7 4.1 0 1.6-.6 3.1-1.9 4.5-.7.8-2.1 1.8-3.9 3-1.9 1.3-3.1 2.4-3.5 3.3h9.3v2.7H68.1c0-1.9.6-3.6 1.9-5 .7-.8 2.1-2 4.3-3.5 1.2-.8 2.1-1.6 2.6-2.1.8-.9 1.2-1.9 1.2-3 0-1-.3-1.8-.8-2.3-.6-.5-1.4-.7-2.5-.7-1.2 0-2 .4-2.6 1.2-.6.7-.9 1.9-1 3.4h-3.1c0-2.1.6-3.8 1.9-5.1 1.3-1.4 3-2.1 5-2.1 1.8 0 3.4.6 4.5 1.6z"/><g><path class="st0" d="M105 29.5h3c.9 0 1.5 0 2.2-.1v2.3c-.7-.1-1.3-.1-2.2-.1h-2.3c1.2 2.1 3 3.9 5.1 5.1-.7.7-1 1.1-1.4 2.1-.9-.6-1.5-1.2-2.3-2.1-1.1-1.2-1.5-1.8-2.2-3.1.1.7.1 1.4.1 2v2.6c0 1 0 1.7.1 2.4h-2.3c.1-.7.1-1.4.1-2.4v-2.4c0-.6 0-1.3.1-2.1-1.3 2.3-2.7 3.9-4.8 5.3-.5-1-.8-1.4-1.3-1.9 2.2-1.2 4-3.1 5.2-5.3h-1.3c-.9 0-1.5 0-2.2.1v-.8c-.4.5-.6 1-.9 1.7-.5-.8-.9-1.5-1.2-2.5 0 .7.1 1.8.1 2.7v5.2c0 1.1 0 1.9.1 2.5h-2.4c.1-.7.1-1.4.1-2.5v-4.4c0-.8 0-1.3.1-2.6-.6 2-1.2 3.4-2.1 4.8-.2-1-.5-1.6-.9-2.3 1-1.3 2.1-3.7 2.7-6.2h-.8c-.6 0-1 0-1.4.1v-2.2c.3.1.7.1 1.4.1h1v-1.6c0-1.1 0-1.6-.1-2.1h2.3c-.1.5-.1 1.1-.1 2.1v1.6h.6c.5 0 .8 0 1.1-.1v2c.8-1.4 1.5-3.6 1.5-4.9l2.1.5c-.1.2-.1.4-.3 1.1-.1.5-.2.6-.3 1h1.6v-1.4c0-.9 0-1.4-.1-1.9h2.4c-.1.5-.1 1.1-.1 1.9v1.4h2.4c1 0 1.6 0 2.2-.1v2.2c-.6-.1-1.3-.1-2.2-.1H105v2.4zm-4.4-2.6c-.4.9-.5 1.2-1.1 2.3-.5-.5-.5-.5-1.7-1.3.2-.2.2-.3.3-.5-.3 0-.6-.1-1-.1h-.5c.4 1.1 1 2 1.9 3.2v-1.2c.7.1 1.2.1 2.2.1h2.2v-2.6h-2.3zM129.7 25.1c1 0 1.5 0 2-.1v2.3c-.6-.1-1.4-.1-2.4-.1h-3c.2 3.5.6 6 1.4 7.8.4.9.8 1.6 1.2 2 .2.2.4.4.5.4.2 0 .5-1 .8-3.1.9.6 1.2.8 1.9 1.1-.3 2-.7 3.1-1.2 3.8-.4.5-.9.9-1.4.9-.8 0-1.8-.8-2.7-2-1-1.4-1.8-3.5-2.3-6.1-.3-1.6-.3-2-.5-4.8h-8.1c-.9 0-1.6 0-2.4.1V25c.6.1 1.4.1 2.4.1h8.1c-.1-1.1-.1-1.1-.1-1.7 0-.5-.1-1.2-.1-1.6h2.5c-.1.5-.1 1.1-.1 1.6V25h2.4c-.6-.9-1-1.5-1.9-2.4l1.8-.8c.9.9 1.1 1.1 2 2.3l-1.6.9h.8zm-13.4 6.5c-.8 0-1.5 0-2.1.1v-2.2c.5.1 1.2.1 2.1.1h4.9c.9 0 1.5 0 2.1-.1v2.2c-.6-.1-1.3-.1-2-.1h-1.4v4.6c1.4-.3 2.2-.4 4.2-.9v2.1c-3.4.8-6.7 1.5-9.4 1.9-.2 0-.4.1-.8.1l-.4-2.3c.9 0 1.8-.1 4.1-.5v-5h-1.3zM139 28.3c-1.3.8-1.8 1.1-3.3 1.8-.3-.8-.7-1.4-1.2-2.1 2.2-.9 3.6-1.6 5.1-2.8 1.3-1 2.4-2.1 3.2-3.4h2.4c1.1 1.5 1.9 2.3 3.4 3.4 1.7 1.2 3.4 2.1 5.2 2.7-.6.9-.8 1.4-1.1 2.3-1.3-.5-2.1-1-3.5-1.9v1.6c-.5-.1-1.1-.1-1.8-.1h-6.8c-.6 0-1.2 0-1.8.1v-1.6zm-1.1 5.2c-1 0-1.7 0-2.4.1v-2.4c.7.1 1.4.1 2.4.1h12.7c1 0 1.7 0 2.4-.1v2.4c-.7-.1-1.4-.1-2.4-.1h-7c-.6 1.5-1.3 2.7-2.1 4 3.6-.2 3.6-.2 6.5-.5-.7-.7-1-1.1-2.1-2.3l2-.9c2.2 2.2 3.1 3.2 4.7 5.4l-2 1.3c-.7-1-.9-1.3-1.2-1.8-1.7.2-2.9.4-3.7.4-2 .2-6 .5-6.9.6-1.1.1-2.2.2-2.6.3l-.3-2.5c.5 0 .9.1 1.2.1.1 0 .8 0 1.8-.1 1-1.5 1.6-2.7 2.2-4.1h-3.2zm9.6-5.9h.9c-1.9-1.3-3-2.3-4.3-4-1.1 1.4-2.3 2.6-4.2 4h7.6zM161.7 38.3c0 1 0 1.5.1 2.1h-2.5c.1-.6.1-1.2.1-2.1v-5.1c-.8.7-1.2 1.1-2.3 1.7-.2-.8-.6-1.5-1-2.1 1.4-.8 2.4-1.6 3.5-2.7 1-1 1.5-1.8 2.2-3.1h-3.3c-.7 0-1.2 0-1.7.1v-2.3c.5.1.9.1 1.6.1h1v-1.7c0-.5 0-1.1-.1-1.5h2.5c-.1.5-.1.9-.1 1.6V25h.8c.6 0 .9 0 1.2-.1l1 1.1c-.2.3-.3.5-.4.9-.7 1.5-1.1 2.1-2 3.5 1 1.1 1.9 1.8 3.2 2.6-.5.7-.8 1.2-1.1 2-1.1-.7-1.8-1.3-2.6-2.3v5.6zm8.6-.9h2.4c1 0 1.7 0 2.3-.1v2.5c-.7-.1-1.5-.1-2.3-.1h-7c-.8 0-1.6 0-2.3.1v-2.5c.7.1 1.4.1 2.3.1h2.2v-8h-1.5c-.7 0-1.3 0-2 .1v-2.3c.6.1 1.1.1 2 .1h1.5v-3.6c0-.8 0-1.3-.1-2.1h2.5c-.1.8-.1 1.2-.1 2.1v3.6h2.2c.9 0 1.4 0 2-.1v2.3c-.7-.1-1.3-.1-2-.1h-2.2v8z"/></g></svg>