<svg version="1.1" id="レイヤー_1" xmlns="http://www.w3.org/2000/svg" x="0" y="0" width="168.2" height="59.1" xml:space="preserve"><style>.st0{fill:#fff}</style><path class="st0" d="M11.8 0h11.8v11.8H11.8zM11.8 47.3h11.8v11.8H11.8zM23.7 11.8v11.9H11.8V11.8H0v35.5h11.8V35.5h11.9v11.8h11.8V11.8zM50.2 20.6v7.6h9.2v-7.6h3v18.1h-3v-8h-9.2v8h-3V20.6h3zM76.4 21.7c1.1 1 1.7 2.3 1.7 3.9s-.6 3-1.8 4.3c-.7.8-2 1.7-3.8 2.9-1.9 1.2-3 2.3-3.4 3.2H78v2.6H65.5c0-1.9.6-3.5 1.8-4.8.7-.8 2.1-1.9 4.2-3.3 1.2-.8 2-1.5 2.5-2 .8-.9 1.2-1.9 1.2-2.9s-.3-1.7-.8-2.2c-.6-.4-1.4-.7-2.4-.7-1.1 0-2 .4-2.5 1.1-.6.7-.9 1.8-.9 3.2h-3c0-2 .6-3.7 1.8-4.9 1.2-1.3 2.8-2 4.7-2 1.7.1 3.2.6 4.3 1.6z"/><g><path class="st0" d="M100.9 28.3h2.9c.9 0 1.5 0 2.1-.1v2.2c-.6-.1-1.3-.1-2.1-.1h-2.2c1.2 2.1 2.8 3.7 4.9 4.9-.7.7-.9 1-1.4 2-.8-.6-1.4-1.2-2.2-2.1-1-1.2-1.4-1.8-2.1-3 .1.7.1 1.4.1 1.9v2.5c0 1 0 1.6.1 2.3h-2.3c.1-.6.1-1.4.1-2.3v-2.3c0-.5 0-1.3.1-2-1.3 2.2-2.6 3.7-4.6 5.1-.5-.9-.8-1.4-1.2-1.9 2.1-1.2 3.8-2.9 5-5.1h-1.3c-.9 0-1.5 0-2.1.1v-.8c-.4.5-.6.9-.8 1.6-.5-.8-.8-1.4-1.2-2.4 0 .6.1 1.7.1 2.6v5c0 1 0 1.8.1 2.4h-2.3c.1-.6.1-1.4.1-2.4v-4.2c0-.8 0-1.3.1-2.5-.6 1.9-1.2 3.3-2.1 4.6-.2-.9-.5-1.5-.9-2.2 1-1.2 2-3.6 2.6-5.9h-.8c-.6 0-1 0-1.3.1v-2.1c.3.1.7.1 1.3.1h1v-1.6c0-1 0-1.5-.1-2h2.3c-.1.5-.1 1.1-.1 2v1.6h.6c.5 0 .7 0 1.1-.1v1.9c.8-1.4 1.4-3.5 1.5-4.8l2 .5c-.1.2-.1.4-.3 1.1-.1.4-.2.6-.3 1h1.6v-1.4c0-.8 0-1.4-.1-1.9h2.3c-.1.5-.1 1-.1 1.9V24h2.3c1 0 1.5 0 2.1-.1V26c-.6-.1-1.2-.1-2.1-.1H101v2.4zm-4.3-2.4c-.4.9-.5 1.2-1.1 2.2-.5-.5-.5-.5-1.6-1.3.2-.2.2-.3.3-.5-.3 0-.6-.1-1-.1h-.5c.4 1 1 2 1.8 3.1v-1.1c.6.1 1.2.1 2.1.1h2.1v-2.5h-2.1zM124.6 24.1c.9 0 1.4 0 1.9-.1v2.2c-.5-.1-1.3-.1-2.3-.1h-2.9c.2 3.4.6 5.7 1.4 7.5.4.9.8 1.5 1.2 1.9l.4.4c.2 0 .5-.9.7-3 .8.6 1.2.8 1.9 1.1-.3 1.9-.6 3-1.1 3.7-.4.5-.8.8-1.4.8-.7 0-1.7-.7-2.6-1.9-1-1.4-1.7-3.4-2.2-5.9-.3-1.6-.3-1.9-.5-4.7h-7.8c-.9 0-1.6 0-2.3.1V24c.6.1 1.3.1 2.3.1h7.7c-.1-1-.1-1-.1-1.6 0-.5-.1-1.2-.1-1.5h2.4c-.1.5-.1 1-.1 1.6v1.5h2.3c-.5-.9-1-1.4-1.9-2.3l1.7-.8c.8.8 1.1 1.1 1.9 2.2l-1.6.9h1.1zm-12.8 6.3c-.7 0-1.4 0-2 .1v-2.1c.5.1 1.2.1 2 .1h4.7c.9 0 1.5 0 2-.1v2.1c-.6-.1-1.2-.1-2-.1h-1.4v4.4c1.4-.3 2.1-.4 4-.9v2c-3.3.8-6.4 1.4-9 1.8-.2 0-.4.1-.7.1l-.4-2.2c.8 0 1.7-.1 3.9-.5v-4.8h-1.1zM133.5 27.2c-1.2.8-1.8 1.1-3.1 1.7-.3-.8-.6-1.3-1.1-2 2.1-.8 3.4-1.6 4.9-2.7 1.3-1 2.3-2 3.1-3.3h2.3c1 1.4 1.8 2.2 3.3 3.2 1.7 1.2 3.2 2 5 2.6-.5.8-.8 1.4-1.1 2.2-1.2-.5-2-.9-3.3-1.8v1.5c-.5-.1-1-.1-1.8-.1h-6.5c-.6 0-1.2 0-1.7.1v-1.4zm-1 5c-1 0-1.7 0-2.3.1V30c.6.1 1.4.1 2.3.1h12.2c1 0 1.6 0 2.3-.1v2.3c-.6-.1-1.3-.1-2.3-.1H138c-.6 1.4-1.2 2.6-2 3.8 3.5-.2 3.5-.2 6.2-.5-.6-.7-1-1-2.1-2.2l1.9-.9c2.1 2.1 2.9 3.1 4.5 5.2l-1.9 1.2c-.6-1-.8-1.2-1.2-1.7-1.6.2-2.8.4-3.5.4-1.9.2-5.8.5-6.6.6-1.1.1-2.1.2-2.5.3l-.3-2.4c.5 0 .9.1 1.1.1.1 0 .7 0 1.7-.1 1-1.4 1.6-2.6 2.1-3.9h-2.9zm9.2-5.7h.9c-1.8-1.2-2.9-2.3-4.1-3.8-1 1.4-2.3 2.5-4.1 3.8h7.3zM155.3 36.8c0 .9 0 1.4.1 2H153c.1-.6.1-1.1.1-2v-4.9c-.8.7-1.2 1-2.2 1.7-.2-.7-.6-1.4-1-2 1.4-.8 2.3-1.5 3.4-2.6.9-1 1.5-1.8 2.1-3h-3.2c-.7 0-1.1 0-1.6.1v-2.2c.5.1.9.1 1.5.1h1v-1.6c0-.5 0-1-.1-1.5h2.4c-.1.5-.1.9-.1 1.5V24h.8c.6 0 .9 0 1.1-.1l.9 1c-.2.3-.3.5-.4.8-.6 1.4-1 2.1-2 3.3.9 1 1.8 1.7 3.1 2.5-.5.6-.8 1.2-1.1 1.9-1-.7-1.7-1.2-2.5-2.2v5.6zm8.3-.9h2.3c1 0 1.6 0 2.2-.1v2.4c-.7-.1-1.4-.1-2.2-.1h-6.7c-.8 0-1.5 0-2.2.1v-2.4c.6.1 1.3.1 2.3.1h2.1v-7.7H160c-.7 0-1.3 0-1.9.1v-2.2c.6.1 1.1.1 1.9.1h1.5v-3.4c0-.8 0-1.3-.1-2h2.4c-.1.8-.1 1.2-.1 2v3.4h2.1c.9 0 1.4 0 1.9-.1v2.2c-.6-.1-1.2-.1-1.9-.1h-2.1v7.7z"/></g></svg>