<svg version="1.1" id="レイヤー_1" xmlns="http://www.w3.org/2000/svg" xmlns:xlink="http://www.w3.org/1999/xlink" x="0" y="0" width="167.3" height="54" xml:space="preserve"><style>.st0{fill-rule:evenodd;clip-rule:evenodd;fill:#44b9a2}</style><path class="st0" d="M11 0h11v10.9H11zM22 10.9v10.4H11V10.9H0v32.2h11V32.2h11v10.9h11V10.9zM11 43.1h11V54H11z"/><g><defs><path id="SVGID_1_" d="M151.6 21.8v-2.7h13.8v2.7c-1 2.2-2.4 4.4-4.2 6.3 2.3 2.1 4.3 4 6.1 5.7l-2 2c-2.1-2.1-4.1-4-6-5.7-2.5 2.3-5.3 4.2-8.3 5.6l-1.3-2.4c2.9-1.4 5.4-3.1 7.5-5.1s3.8-4.1 5-6.4h-10.6zm-11.9 11c1.4-.4 2.4-1.1 3.2-2.2.7-1.1 1.2-2.8 1.4-4.9l2.7.3c-.6 6.5-3.8 9.8-9.8 9.8h-.5v-17h3v14zM131 18.7h2.9v4.4c0 2.9-.2 5.2-.5 6.8-.3 1.6-.9 2.9-1.6 3.7-.7.9-1.8 1.6-3.2 2.3l-1.6-2.4c.7-.4 1.3-.7 1.7-1 .4-.3.8-.7 1.1-1.2.3-.5.6-1.1.7-1.8.1-.7.2-1.6.3-2.6.1-1 .1-2.3.1-3.9v-4.3zm-26 11.8c.3-.4 1-1.3 2.1-2.8 1.1-1.5 1.6-2.2 1.7-2.3 1.4-2 2.4-3.3 2.8-3.7.5-.4 1.1-.6 1.9-.6.6 0 1.1.1 1.4.3.4.2.8.5 1.2.8.4.4 1.2 1.2 2.3 2.4 3.1 3.3 5.5 5.8 7.2 7.6l-2.1 2.2c-2.5-2.5-4.9-5.1-7.2-7.6-1-1.1-1.6-1.7-1.9-2-.3-.3-.6-.5-.8-.5-.2 0-.4.2-.7.5-.3.4-.8 1-1.5 2-1.5 2.1-2.8 3.9-4 5.4l-2.4-1.7zm-6.7-7.8h-7.2c-.9 2.3-2.3 4.4-4.3 6.2l-2.1-1.7c1.3-1.2 2.3-2.7 3.1-4.3.8-1.6 1.3-3.2 1.5-4.9l2.8.2c-.1.6-.2 1.3-.3 1.9h9.5v.5c0 5-1.1 8.7-3.4 11.1-2.3 2.4-6 3.8-11 4.2l-.4-2.6c4-.4 7-1.4 8.8-3 1.8-1.5 2.8-4.1 3-7.6zm-19.7-1.8l2.7.6c-.8 4.3-2.5 7.6-5.2 9.9-2.7 2.3-6.4 3.7-11.2 4.1l-.4-2.8c4.2-.4 7.4-1.5 9.6-3.4 2.2-2 3.7-4.8 4.5-8.4zm-14.6.5l1.4-2.6c2.2 1 4.4 2.2 6.7 3.5l-1.4 2.5c-2-1.1-4.2-2.2-6.7-3.4zM43 21l.5-2.6c2.3.4 4.7.8 7.3 1.4l-.5 2.6c-2.6-.6-5-1.1-7.3-1.4zm-1 5.2l.5-2.6c1.9.3 4.3.8 7.1 1.4l-.5 2.5c-2.6-.5-4.9-1-7.1-1.3zm.9 6.9c4.5-.4 7.8-1.4 9.9-3.2 2.1-1.7 3.5-4.6 4.2-8.6l2.7.5c-.8 4.6-2.5 8-5 10.2-2.5 2.2-6.3 3.4-11.4 3.9l-.4-2.8z"/></defs><use xlink:href="#SVGID_1_" overflow="visible" fill-rule="evenodd" clip-rule="evenodd" fill="#44b9a2"/><clipPath id="SVGID_2_"><use xlink:href="#SVGID_1_" overflow="visible"/></clipPath><g clip-path="url(#SVGID_2_)"><defs><path id="SVGID_3_" d="M-57-299h842v595H-57z"/></defs><use xlink:href="#SVGID_3_" overflow="visible" fill="#44b9a2"/><clipPath id="SVGID_4_"><use xlink:href="#SVGID_3_" overflow="visible"/></clipPath><path clip-path="url(#SVGID_4_)" fill="#44b9a2" d="M37 13h135.3v28H37z"/></g></g></svg>