<?xml version="1.0" encoding="utf-8"?>
<!-- Generator: Adobe Illustrator 24.1.2, SVG Export Plug-In . SVG Version: 6.00 Build 0)  -->
<svg version="1.1" id="レイヤー_1" xmlns="http://www.w3.org/2000/svg" xmlns:xlink="http://www.w3.org/1999/xlink" x="0px"
	 y="0px" width="500px" height="70.6px" viewBox="0 0 500 70.6" style="enable-background:new 0 0 500 70.6;" xml:space="preserve">
<style type="text/css">
	.st0{fill:#FFFFFF;}
</style>
<path class="st0" d="M130.5,15.6h-12.6l-0.1,0.2L95,70.6h12.8l4.9-11.8l0,0h23l4.9,11.8h12.8L130.5,15.6z M131.6,49h-14.9l7.4-17.9
	L131.6,49L131.6,49z M212.7,15.6v51v4h-11.8l-26.6-35.3v35.3h-11.8v-55h11.8l26.6,35.3V15.6H212.7z M479,49v21.6h-11.8v-2.9V49
	l-0.9-1.4l-20.2-32h13.5L473,36.9l13.4-21.3H500L479,49z M0,0h14.6l21.9,52.9l7.4-17.6L29.2,0h14.6l7.3,17.6L58.4,0H73L58.5,35.3
	l7.3,17.6L87.7,0h14.6L73.1,70.6H58.5L51.2,53l-7.3,17.6H29.2L0,0z M366.1,15.6h-22.7v11.8l0,0v43.2h11.8l0,0l0,0h10.9
	c15.2,0,27.5-12.3,27.5-27.5C393.6,27.9,381.3,15.6,366.1,15.6z M366.1,58.8L366.1,58.8h-10.9V27.4h10.9l0,0c8.7,0,15.7,7,15.7,15.7
	C381.8,51.8,374.8,58.8,366.1,58.8z M269.4,27.4h-15.8v43.2h-11.8V27.4H226V15.6h43.4V27.4z M294.6,27.4v9.8h28.7V49h-28.7v9.8h31.6
	v11.8h-43.4V27.4l0,0V15.6h43.4v11.8C326.2,27.4,294.6,27.4,294.6,27.4z M450.3,58.8v11.8h-43.4V58.8V15.6h11.8v43.2H450.3z"/>
</svg>
